<svg xmlns="http://www.w3.org/2000/svg" viewBox="0 0 24 24" fill="currentColor"><path d="M12 0C5.373 0 0 5.373 0 12s5.373 12 12 12 12-5.373 12-12S18.627 0 12 0m5.521 12.465c.003.344.005.697.005 1.035 0 3.447-2.641 7.465-7.525 7.465-1.494 0-2.887-.436-4.066-1.177.207.024.418.036.632.036 1.242 0 2.386-.422 3.291-1.13-1.159-.027-2.137-.786-2.474-1.839.163.031.329.047.498.047.242 0 .477-.032.704-.094-1.21-.244-2.12-1.31-2.12-2.589 0-.011 0-.023 0-.034.357.198.766.316 1.204.33-.71-.475-1.178-1.284-1.178-2.201 0-.485.13-.939.357-1.33 1.305 1.601 3.252 2.656 5.445 2.77-.045-.193-.068-.393-.068-.598 0-1.45 1.176-2.625 2.625-2.625.755 0 1.437.319 1.915.83.598-.117 1.16-.334 1.668-.634-.196.613-.613 1.127-1.156 1.452.531-.063 1.037-.204 1.507-.412-.352.527-.798.99-1.31 1.36z"/></svg>
